<svg xmlns="http://www.w3.org/2000/svg" viewBox="0 0 120 140" fill="none">
  <defs>
    <linearGradient id="eg-mark-grad" x1="20" y1="10" x2="100" y2="130" gradientUnits="userSpaceOnUse">
      <stop offset="0.00" stop-color="#FFB300"></stop>
      <stop offset="0.30" stop-color="#FF3D7F"></stop>
      <stop offset="0.65" stop-color="#A020F0"></stop>
      <stop offset="1.00" stop-color="#2A6BFF"></stop>
    </linearGradient>
    <filter id="eg-mark-glow" x="-20%" y="-20%" width="140%" height="140%">
      <feGaussianBlur stdDeviation="6" result="blur"></feGaussianBlur>
      <feMerge><feMergeNode in="blur"></feMergeNode><feMergeNode in="SourceGraphic"></feMergeNode></feMerge>
    </filter>
  </defs>
  
  <path filter="url(#eg-mark-glow)" fill="url(#eg-mark-grad)" d="M22 16 H98 a8 8 0 0 1 8 8 v10 a8 8 0 0 1 -8 8 H46 v18 H88 a8 8 0 0 1 8 8 v10 a8 8 0 0 1 -8 8 H46 v18 H98 a8 8 0 0 1 8 8 v10 a8 8 0 0 1 -8 8 H22 a8 8 0 0 1 -8 -8 V24 a8 8 0 0 1 8 -8 z"></path>
</svg>